<svg id="Layer_1" data-name="Layer 1" xmlns="http://www.w3.org/2000/svg" xmlns:xlink="http://www.w3.org/1999/xlink" viewBox="0 0 400 300" width="406" height="306" class="illustration styles_illustrationTablet__1DWOa"><defs><linearGradient id="linear-gradient" x1="331.05" y1="149.25" x2="274.61" y2="195.18" gradientUnits="userSpaceOnUse"><stop offset="0" stop-color="#e3965d"></stop><stop offset="1" stop-color="#fdeae3"></stop></linearGradient><linearGradient id="linear-gradient-2" x1="231.39" y1="171.84" x2="177.14" y2="216" xlink:href="#linear-gradient"></linearGradient><linearGradient id="linear-gradient-3" x1="141.42" y1="194.07" x2="91.65" y2="234.59" xlink:href="#linear-gradient"></linearGradient></defs><title>-</title><path d="M37.15,206.37l129,74.5a21.2,21.2,0,0,0,21.2,0l178.41-103a8.58,8.58,0,0,0,0-14.85L233.33,86.14a11.12,11.12,0,0,0-11.14,0L37.15,193A7.74,7.74,0,0,0,37.15,206.37Z" fill="#fdeae3"></path><path d="M307.59,166.62,253.3,186.84s5.5,5.73,26.92,18.45l48.66-28.59" fill="url(#linear-gradient)"></path><path d="M198.9,189.12,156.66,208s6.56,4,28,16.76l44.65-26.54" fill="url(#linear-gradient-2)"></path><path d="M114.71,207.89,72.47,226.76s6.56,4,28,16.76l39.43-24.77" fill="url(#linear-gradient-3)"></path><path d="M182.33,89.64s-7.49,2.58-7.11-6.64,8.56-9.28,8.56-9.28,2,12.89-1.45,15.92" fill="#35406e"></path><path d="M182.07,76.37a1.2,1.2,0,0,0-1.2-1,1,1,0,0,0-.93-.26.87.87,0,0,0-.12-.14,1.23,1.23,0,0,0-.31-.21c1.18-.66.07-2.5-1.2-1.89l-.72.35c.46-.93-.49-2.26-1.47-1.51a49.87,49.87,0,0,1-7.46,4.65,12.88,12.88,0,0,0-3,2,24.88,24.88,0,0,0-2.41,3.29c-.87,1.14,1.07,2.26,1.93,1.13.63-.83,1.11-1.8,1.81-2.58l.21.09-.05.05c-1,1.08.47,2.45,1.58,1.58l1-.77q-.56.65-1.11,1.32c-.73.9.23,2.55,1.35,1.75l1.85-1.31q-1.09,1.37-2.07,2.84a.93.93,0,0,0,.14,1.29,6.65,6.65,0,0,1-1.63.23c-1.44,0-3.81,1.79-2.37,1.78,3.16,0,7.6-2.18,9.85-4.26,2.43-2.26,5-4.11,6.64-7A1.07,1.07,0,0,0,182.07,76.37Z" fill="#ef986c"></path><path d="M208.4,188.94c0-2.75.13-5.5.15-8.25l-12.09,2.36s.6,4.68-.72,6.36-11.4,6.6-12.6,8.16-1.56,4.49,5.52,4.22,12.72-5.18,14.28-5.54,4.76-.79,5.78-1.52C208.66,192.81,208.39,190.86,208.4,188.94Z" fill="#2a343d"></path><path d="M229,192.42c0-2.75.13-5.5.15-8.25L217,186.54s.6,4.68-.72,6.36-11.4,6.6-12.6,8.16-1.56,4.49,5.52,4.22,12.72-5.18,14.28-5.54,4.76-.79,5.78-1.52C229.22,196.29,229,194.34,229,192.42Z" fill="#2a343d"></path><path d="M223.42,74.5l-6.13,1.11a17,17,0,0,0,.05-2.31c-1.28-.07-2.56-.19-3.83-.35-3.58-.44-6.53-4-9.89-5.36-1.45,6.94-1.84,22.12-3.54,33.13-2.15,13.95-8.71,78.69-6.85,84.06,0,0-.07,1.94,11.11,2.56,0,0,2.67,1.53,6.59-4l4-68.94-1.82,74c3.38,3.1,8.46,4.55,17.79-.12l4.49-93.71Z" fill="#35406e"></path><path d="M214.28,70.12q1.47.16,2.95.25c-.76-13.14-4.85-42.5-13.6-2.77A37.39,37.39,0,0,0,214.28,70.12Z" fill="#35406e"></path><rect x="291.84" y="116.99" width="5.22" height="60.54" rx="2.26" ry="2.26" transform="translate(45.73 -68.43) rotate(14.36)" fill="#d37e6a"></rect><rect x="304.98" y="124.7" width="5.22" height="60.54" rx="2.26" ry="2.26" fill="#d37e6a"></rect><rect x="319.23" y="116.99" width="5.22" height="60.54" rx="2.26" ry="2.26" transform="translate(-24.63 74.97) rotate(-12.8)" fill="#d37e6a"></rect><ellipse cx="307.91" cy="131.57" rx="22.22" ry="12.54" fill="#ce4823"></ellipse><polyline points="285.69 131.57 285.69 125.73 330.12 125.73 330.12 131.57" fill="#ce4823"></polyline><ellipse cx="307.91" cy="125.73" rx="22.22" ry="12.54" fill="#d66449"></ellipse><path d="M300.37,93.64c-.7.33-.92,1.55-1.14,2.2-.37,1.07-.8,2.11-1.21,3.16-3,7.59-5.86,15.19-7.47,23.21-.37,1.82-.83,3.35.7,4.76,2.73,2.52,7,3.45,10.52,4.06a35.74,35.74,0,0,0,21-2.66,4.92,4.92,0,0,0,2.59-6c-2.91-8.77-9.81-29.16-11.09-29.32C312.64,92.82,307.73,90.16,300.37,93.64Z" fill="#68e1fd"></path><ellipse cx="307.43" cy="94.31" rx="7.78" ry="2.83" fill="#ce4823"></ellipse><path d="M303.88,93.74a48.63,48.63,0,0,0-2.8-6.25l.13,0c1.81-.67,1.37-3.89,1.05-5.32a.6.6,0,0,0-1.08-.14,12.76,12.76,0,0,0-1.31,3.37q-.32-.53-.66-1.06l0-.06c.16-.47.32-.94.47-1.41a6.18,6.18,0,0,0,.19-.66,11.88,11.88,0,0,0,.47-4.09.69.69,0,0,0-.09-.29.63.63,0,0,0-.7-.33c-.86.16-1.26,1.4-1.48,2.13a10.69,10.69,0,0,0-.37,2.5Q296.92,81,296,79.88l0-.07c.55-1.65,1.46-4.27.24-5.84a.58.58,0,0,0-.57-.15c-.82.2-1,1.05-1,1.79a15.62,15.62,0,0,0,.15,2.85q-1.28-1.47-2.69-2.84c-.54-.53-1.38.3-.83.83s.94.94,1.4,1.42c-1.27-.33-2.51-.32-2.91.74-.9,2.38,3.87,2.06,5.23,1.9q.5.62,1,1.26a2.23,2.23,0,0,0-1.24.25,1.27,1.27,0,0,0-.29,2.22,2.75,2.75,0,0,0,1.62.27l1.84,0c.31.48.62,1,.91,1.47a3,3,0,0,0-2.35.17,1.26,1.26,0,0,0-.16,2.07c.9.75,2.6.38,3.64.24a.63.63,0,0,0,.22-.07,46.78,46.78,0,0,1,2.52,5.69C303,94.76,304.14,94.46,303.88,93.74Z" fill="#1a7a23"></path><path d="M292.7,76.67s-.51-6.15-5.57-6.25C287.13,70.42,285.67,76.27,292.7,76.67Z" fill="#1a7a23"></path><path d="M310,93.55a51.57,51.57,0,0,1,3-6.63l-.14,0c-1.92-.71-1.45-4.13-1.12-5.64a.63.63,0,0,1,1.14-.15,13.53,13.53,0,0,1,1.39,3.57q.34-.57.7-1.12l0-.07c-.17-.5-.34-1-.49-1.5a6.55,6.55,0,0,1-.2-.7,12.6,12.6,0,0,1-.5-4.33.73.73,0,0,1,.1-.31.67.67,0,0,1,.75-.35c.91.17,1.34,1.48,1.57,2.26a11.34,11.34,0,0,1,.39,2.65q.86-1.19,1.78-2.34l0-.07c-.59-1.75-1.55-4.52-.25-6.19a.62.62,0,0,1,.61-.16c.86.21,1.06,1.12,1.1,1.9a16.57,16.57,0,0,1-.15,3q1.36-1.56,2.85-3c.58-.56,1.46.32.88.88s-1,1-1.48,1.51c1.35-.35,2.66-.34,3.08.79.95,2.53-4.11,2.19-5.54,2q-.53.66-1,1.33a2.36,2.36,0,0,1,1.32.26,1.35,1.35,0,0,1,.31,2.35,2.92,2.92,0,0,1-1.71.29l-1.95,0c-.33.51-.66,1-1,1.56a3.21,3.21,0,0,1,2.49.18,1.34,1.34,0,0,1,.17,2.19c-1,.8-2.76.4-3.86.26a.67.67,0,0,1-.24-.08,49.61,49.61,0,0,0-2.68,6C310.91,94.63,309.7,94.31,310,93.55Z" fill="#1a7a23"></path><path d="M321.83,75.45s.54-6.52,5.9-6.63C327.74,68.82,329.29,75,321.83,75.45Z" fill="#1a7a23"></path><path d="M306.72,93a61.39,61.39,0,0,0,.93-8.6l.17,0c2.4.42,4-3.38,4.53-5.13a.75.75,0,0,0-1.09-.84,16.11,16.11,0,0,0-3.57,2.84q0-.79,0-1.57l.07-.05c.48-.41.95-.82,1.41-1.24a7.8,7.8,0,0,0,.62-.6,15,15,0,0,0,3.11-4.16.87.87,0,0,0,.09-.38.79.79,0,0,0-.55-.81c-1-.37-2.27.72-3,1.38a13.5,13.5,0,0,0-2,2.49q-.16-1.74-.42-3.47l.08-.06c1.66-1.45,4.3-3.73,4-6.21a.73.73,0,0,0-.53-.53c-1-.3-1.76.52-2.27,1.29a19.73,19.73,0,0,0-1.65,3.2q-.46-2.42-1.12-4.81a.74.74,0,0,0-1.44.38c.22.81.43,1.62.61,2.44-1.18-1.17-2.53-1.95-3.65-1-2.49,2,2.91,4.71,4.49,5.39.1.66.19,1.33.27,2a2.81,2.81,0,0,0-1.51-.52c-1.23-.05-2.32,1-1.73,2.23A3.47,3.47,0,0,0,304.13,78l2,1.15c0,.73.05,1.45.06,2.18A3.82,3.82,0,0,0,303.53,80,1.59,1.59,0,0,0,302,82.17c.51,1.39,2.6,2.06,3.82,2.58a.8.8,0,0,0,.29.06,59.05,59.05,0,0,1-.87,7.81C305.11,93.56,306.55,94,306.72,93Z" fill="#1a7a23"></path><path d="M305.39,67.28s3.36-7-2.09-10.35C303.3,56.92,298,62.38,305.39,67.28Z" fill="#1a7a23"></path><path d="M230.26,127.41s-1.23-7.69,6.35-10.73,7.42,9.94,7.42,9.94l3.8-1.49s2.22-13.71-11.09-12.76-11.25,16.38-11.25,16.38Z" fill="#ce4823"></path><path d="M240.69,108.42l-.1-.48a1.18,1.18,0,0,0,0-.48L239,95.95a.87.87,0,0,0-.62-.77,10.24,10.24,0,0,0-.33-2,2.82,2.82,0,0,0-3.32-.58c-.56-.61-1.78-.71-1.94.34q-.28,1.87-.54,3.74h-.06l-.1-.4a1,1,0,0,0-.47-.64c-.28-.93-.5-1.87-.72-2.8-.33-1.4-2.49-.81-2.15.59q.17.7.35,1.4c-.79-.23-1.77.34-1.39,1.29a37,37,0,0,1,2.48,10.46c-.53,2.18-1,4.38-1.35,6.6-.22,1.37-.51,3.24,1.22,3.71a1.13,1.13,0,0,0,1.37-.78q.5-2.24.83-4.51.25.83.52,1.66A29.86,29.86,0,0,0,234,116.7c.29.62.69,1.16,1.46,1.14a1.36,1.36,0,0,0,1.15-.53,1.33,1.33,0,0,0,1.67.76c1-.29,1.23-1.33,1.21-2.41C242.35,114.42,241.16,110.81,240.69,108.42Z" fill="#ef986c"></path><path d="M240.32,90a178.46,178.46,0,0,0-3.5-22.21c-1.25-5.86-2.6-15.6-4.76-21.22-1.69-4.38-6-5.84-10.89-6.61a82.16,82.16,0,0,0-15-1.25,1.47,1.47,0,0,1-.6-.1,13.15,13.15,0,0,0-8.28,4.88c-4.63,5.83-5.35,9.2-9.53,15.3a68,68,0,0,1-13.38,14.46c3.95,1.45,6.69,5.44,7.8,9.45a14.67,14.67,0,0,1,.15,7c6.55-7.25,19-22.25,19-22.25l.38,13.48c6.87,5.95,18,4.36,23.19,3.2l3,19.44c5.38,2.09,12.5-.32,12.5-.32S241.09,99.11,240.32,90Z" fill="#68e1fd"></path><path d="M218.72,136.78a7.15,7.15,0,0,1,3.3-6c8-5.08,27.64-17.44,28.94-16.25,1.62,1.5,4.87,29.52,3.62,30.47-.94.71-20.82,10.77-30.56,15.69a3.65,3.65,0,0,1-5.29-3.26Z" fill="#ce4823"></path><path d="M205.58,38.58S204,48.74,213.19,48.74s9.67-8.23,9.67-8.23A57.45,57.45,0,0,0,205.58,38.58Z" fill="#f2f2f2"></path><path d="M218.63,37.5s-2.59,2.6-4.94,2.8c-2,.17-4.36-2.34-5.06-3.14a20.58,20.58,0,0,0,1.17,7.23c.39.66.77,1.1,1,1,.91-.36,2.62-2.79,2.62-2.79s1.91,2.91,2.72,2.81,3.46-4.8,3.46-4.8Z" fill="#35406e"></path><path d="M224.39,20.43a4,4,0,0,0-4.93-1.24.77.77,0,0,0-.13-.2c-1-1.13-1.51-2.32-3.12-2.77a8.53,8.53,0,0,0-4.48.16,5.46,5.46,0,0,0-3.34,2.46.68.68,0,0,0-.4-.1,6,6,0,0,0-5.74,6.14c.13,2.71,2.27,5.75,5.08,5.94a10,10,0,0,0,4.2.55,1.7,1.7,0,0,0,1.19-2.73l.2-.13.16.06a1.37,1.37,0,0,0,1.87.23l.23-.14a4.85,4.85,0,0,0,1-.37l.39.13-.13.4a1.6,1.6,0,0,0,.73,1.8,2.5,2.5,0,0,0,1,.22,8.66,8.66,0,0,1-2.84,2.6c-1.53.77-.66,2.82.74,2.94-.68.51-.42,3.62.38,3.17a16.26,16.26,0,0,0,8-10.46C224.88,27,225.8,22.21,224.39,20.43Z" fill="#2a343d"></path><path d="M206.09,26.74c-.39-.07-.41,13.15,5,14,6.83,1.1,9.39-7,9.39-7s1-6-3.26-8S211,27.62,206.09,26.74Z" fill="#ef986c"></path><path d="M206.09,26.74s5.38,1,8.26,0S213.1,35,215.22,35s2-5,3.63-3.13-2.46,7.68-2.46,7.68,5.8-2.92,7.14-7.93-5.06-9.77-11.19-9.27S206.09,26.74,206.09,26.74Z" fill="#2a343d"></path><path d="M175.22,83l.27-.1c1.34-.47.78-2.61-.59-2.15l-.49.15a1.14,1.14,0,0,0-1.31-1.51,17.23,17.23,0,0,0-2.6.73c-.39.06-.78.17-1.17.27q-1.88.49-3.71,1.15l.06-.1c.56-1.09,2.64-2.56,1.38-3.48-1.75-1.27-5.29,3.82-5.74,4.85a9.18,9.18,0,0,1-4.41,4.39c-1.06.53,1.85-.64,2.8-.53a1.3,1.3,0,0,0,.39.39,1.25,1.25,0,0,0,.92.59,1.07,1.07,0,0,0,1.37.87l.54-.18q-.91.68-1.8,1.39c-.95.76.14,2.19,1.16,1.84a1.14,1.14,0,0,0,1.27.19q3.21-1.48,6.32-3.17a20.15,20.15,0,0,0,3.27-1.91,1.4,1.4,0,0,0,.53-.13A4.58,4.58,0,0,0,176,84.74,1.26,1.26,0,0,0,175.22,83Z" fill="#ce4823"></path><path d="M167.84,79a1.15,1.15,0,0,0-1.9-.63,13.8,13.8,0,0,0-3.58,4.73,1.12,1.12,0,0,0,.78,1.37c2.28.5,4.22-2.24,5.29-3.9A1,1,0,0,0,167.84,79Z" fill="#ef986c"></path><path d="M171.38,86.18a1.17,1.17,0,0,0-.75.07,1.21,1.21,0,0,0-.73-.65,1.14,1.14,0,0,0-1.37.78q-.3.77-.56,1.54a1,1,0,0,0-.65-.5,1.14,1.14,0,0,0-1.37.78l-.35,1.34a1.12,1.12,0,0,0,2.15.59l0-.07a1.15,1.15,0,0,0,1.94-.26,1,1,0,0,0,.49.29,1.14,1.14,0,0,0,1.37-.78l.59-1.77A1.12,1.12,0,0,0,171.38,86.18Z" fill="#ef986c"></path><path d="M127.65,209.08c-.09-3.37-3.89-3.55-4.92-5.86a6.06,6.06,0,0,1-.25-2.83,1.47,1.47,0,0,1-1.46-1.57,18.33,18.33,0,0,1,1-5L116.77,189s-4.21,6.72-4.6,8.18-.69,12.66-.35,13.74,2.23.82,3.18.58,0-8.8.91-8.35,1.46,7.8,2.67,9.44,8.58.94,8.58.94S127.75,212.45,127.65,209.08Z" fill="#273238"></path><path d="M122.29,199.11c-.92-6.35,1.25-17.69,1.25-17.69l-8.69.66-1.39,12.71a1.38,1.38,0,0,1,.29.73.79.79,0,0,0,0,.17l.16.27c.56.64,2.09.72,2.78,1.09,1.52.83,1.85,2.21,2,3.76.36,2.81.36,7.1,8,5.94C126.72,206.75,123.21,205.45,122.29,199.11Z" fill="#ce4823"></path><path d="M140.16,214.27c-.26-3.36-4.06-3.36-5.19-5.62a6.06,6.06,0,0,1-.39-2.81,1.47,1.47,0,0,1-1.54-1.5,18.33,18.33,0,0,1,.76-5l-5.48-4.59s-3.88,6.91-4.2,8.39-.08,12.68.32,13.74,2.26.71,3.2.43-.39-8.79.51-8.39,1.84,7.72,3.13,9.3,8.62.52,8.62.52S140.41,217.63,140.16,214.27Z" fill="#273238"></path><path d="M134.32,204.57c-1.22-6.29.39-17.73.39-17.73l-8.65,1.08-.78,12.77a1.38,1.38,0,0,1,.33.71.79.79,0,0,0,0,.16l.18.26c.59.61,2.12.62,2.83,1,1.56.75,2,2.12,2.16,3.66.5,2.79.7,7.08,8.28,5.54C139.11,212,135.54,210.86,134.32,204.57Z" fill="#ce4823"></path><path d="M115.05,71.34s-5,1.47-7.33,13.75-3.66,19.18-1.08,22.84,11.56,9.7,11.56,9.7l10.58-14.2" fill="#faca66"></path><path d="M117.41,100.72s-12-25.09-2.36-29.38,21.58,2,23.57,8.34-.91,25.39-.91,25.39S125,105.43,117.41,100.72Z" fill="#faca66"></path><path d="M137,76.74s8.33,14,14.74,12.07S159.91,84,159.91,84s5.45,5.77,4.49,12.5c0,0-7,6.91-14,7.87s-15.76-8-15.76-8" fill="#faca66"></path><path d="M114.17,189.78c9.4,4.83,14.78,9.53,25.16,7.13,2.94-.71,5.57-42.74,5.58-44.89.07-13.83,1.93-22.65-1.57-36.06-.49-1.87-3.27-12.26-5.38-12.53l-20.54-2.72s-4,7-4.2,22.1c-.12,10.07,1.29,20.07,1.51,30.12a86.15,86.15,0,0,1-1.77,17.38c-.54,2.93-1.53,6.19-2.23,9.4a54.52,54.52,0,0,0-.75,7.45A30.64,30.64,0,0,0,114.17,189.78Z" fill="#bc3b1d"></path><path d="M118.15,73.24c-.41-.22-2.42-4,.28-5S130,68.2,130,69.87,130,74,130,74A15.09,15.09,0,0,1,118.15,73.24Z" fill="#e5572c"></path><path d="M117.69,99.72a57.46,57.46,0,0,1-4.57-20.15c0-.74-1.19-.74-1.15,0a59.08,59.08,0,0,0,4.73,20.73C117,101,118,100.39,117.69,99.72Z" fill="#ce4823"></path><path d="M107.87,62.89c-2.4,4.16,3.25,12.53-2.38,14.87a11.77,11.77,0,0,1-4,.62A10,10,0,0,0,94,81.68c-3,3.57-2.79,9.45-.09,13.16,3.08,4.23,8.32,4.78,12.83,2.77,10.66-4.74,3.85-25,11.88-30.43l.39-9.12S110.94,57.59,107.87,62.89Z" fill="#ed913e"></path><path d="M132.87,55.7s-.21,13.12-2.78,14.77-9.67-.8-10-4.44S132.87,55.7,132.87,55.7Z" fill="#ce4823"></path><path d="M125.63,49.41s-4.53-1.78-11.12,2-4.43,16,3.26,18.5,9.65-5,11.1-8,4-4.09,3.95-5.49S132.66,49.2,125.63,49.41Z" fill="#ed913e"></path><path d="M155,101.74c-7.3,5.35-17.22-2.48-21.19-8.57-.35-.54-1.22,0-.86.5,4.24,6.51,14.78,14.62,22.56,8.93C156,102.22,155.47,101.35,155,101.74Z" fill="#ce4823"></path></svg>