<svg xmlns="http://www.w3.org/2000/svg" xmlns:xlink="http://www.w3.org/1999/xlink" viewBox="0 0 400 300" width="406" height="306" class="illustration styles_illustrationTablet__1DWOa"><defs><linearGradient id="linear-gradient" x1="122.89" y1="241.92" x2="143.25" y2="207.19" gradientUnits="userSpaceOnUse"><stop offset="0" stop-color="#fff"></stop><stop offset="0.99" stop-color="#29abe2"></stop></linearGradient><linearGradient id="linear-gradient-2" x1="192.88" y1="201.52" x2="213.12" y2="166.98" gradientUnits="userSpaceOnUse"><stop offset="0" stop-color="#fff"></stop><stop offset="0.99" stop-color="#999"></stop></linearGradient></defs><title>OK</title><g style="isolation: isolate;"><g id="Layer_2" data-name="Layer 2"><path d="M353.11,179.47c-34.24,18.38-135,76.52-166.72,94.87a19.25,19.25,0,0,1-19.35,0L46.28,203.77c-4.8-2.8-3.26-8.11,1.58-10.85L216.37,95a5.77,5.77,0,0,1,5.69,0l131.17,74.59A5.62,5.62,0,0,1,353.11,179.47Z" fill="#709ff9"></path><polygon points="112.25 197.78 76.48 219.77 147.06 261 183.56 239.74 112.25 197.78" fill="url(#linear-gradient)" style="mix-blend-mode: multiply;"></polygon><path d="M106.67,196.65l118.69-68.11a8.31,8.31,0,0,1,8.34,0L297,165.64a4.89,4.89,0,0,1,0,8.45L179.59,242a11,11,0,0,1-11.1-.07L106.6,205.09A4.89,4.89,0,0,1,106.67,196.65Z" fill="#e75a59"></path><path d="M106.67,191.29l118.69-68.11a8.31,8.31,0,0,1,8.34,0L297,160.28a4.89,4.89,0,0,1,0,8.45L179.59,236.67a11,11,0,0,1-11.1-.07L106.6,199.73A4.89,4.89,0,0,1,106.67,191.29Z" fill="#ffdddc"></path><path d="M222.48,131.69c.66.22,60.61,35.19,60.61,35.19L182.94,225.55l-60.5-34.93Z" fill="#fff"></path><path d="M157.1,220a1.55,1.55,0,0,0,.47-2.24,11.35,11.35,0,0,0-2.92-2.2c-1-.64-2.09-1.2-3.13-1.81L143.46,209l-6.62-3.87a3.43,3.43,0,0,0-2.93-.32,3.47,3.47,0,0,0-1.71,1.3,1.42,1.42,0,0,0,.64,2L145,215.23l5.26,3,3,1.78a3.67,3.67,0,0,0,3.11.31A2.67,2.67,0,0,0,157.1,220Z" fill="#e75a59"></path><ellipse cx="126.97" cy="201.76" rx="2.11" ry="1.75" fill="#e75a59"></ellipse><path d="M240.27,63c0,.5-1.1,7.75-1.1,7.75l-2.07,1.08.85-9.75" fill="#af2b27"></path><ellipse cx="254.51" cy="43.46" rx="23.99" ry="31.92" transform="translate(138.44 274.09) rotate(-72.97)" fill="#af2b27"></ellipse><ellipse cx="251.7" cy="43.21" rx="23.99" ry="31.92" transform="translate(136.68 271.22) rotate(-72.97)" fill="#fc857a"></ellipse><path d="M239.09,61.55l-2,10.31s-8.52-17.55-6.4-19.34S239.93,57.21,239.09,61.55Z" fill="#fc857a"></path><path d="M337.45,107.5l-54-31a2.27,2.27,0,0,0-3.4,2v20a5.45,5.45,0,0,0,2.79,4.76l52.37,29.31a2.27,2.27,0,0,0,3.38-2V109.47A2.27,2.27,0,0,0,337.45,107.5Z" fill="#68e1fd"></path><polyline points="333.6 128.28 333.6 139.98 323.84 125.43" fill="#68e1fd"></polyline><path d="M286.39,88.39l28.66,16c1.69.94,3.2-1.65,1.51-2.59l-28.66-16c-1.69-.94-3.2,1.65-1.51,2.59Z" fill="#f2f2f2"></path><path d="M285.14,96.38l43.32,24.16c1.69.94,3.2-1.65,1.51-2.59L286.66,93.79c-1.69-.94-3.2,1.65-1.51,2.59Z" fill="#f2f2f2"></path><polygon points="215.66 177.19 175.74 196.49 187.75 203.51 224.26 182.25 215.66 177.19" fill="url(#linear-gradient-2)" style="mix-blend-mode: multiply;"></polygon><path d="M226.86,175.74V101c0-3.32-2.26-6.46-5.54-6.92a6.49,6.49,0,0,0-7.43,6.42v77.4a5.84,5.84,0,0,0,9.12,4.85l.13-.09A8.47,8.47,0,0,0,226.86,175.74Z" fill="#68e1fd"></path><path d="M226.86,128V101c0-3.32-2.26-6.46-5.54-6.92a6.49,6.49,0,0,0-7.43,6.42v43A108,108,0,0,0,226.86,128Z" opacity="0.27"></path><path d="M153.23,96.78s65.5-4.16,69.68-2.23,5.88,8.87,4.29,18.53-32.82,48.58-32.82,48.58" fill="#68e1fd"></path><path d="M198.16,117.07c9.51-5.82,19.42-10.93,29-16.65a9.57,9.57,0,0,0-3.08-5.3c-18.23,8.93-36.2,18.37-54.34,27.48l5.48,8.64C182.9,126.61,190.48,121.77,198.16,117.07Z" fill="#fff" opacity="0.51"></path><path d="M195.81,125.25c10.59-6.73,21.61-12.84,32-19.93,0-.43,0-.87-.05-1.29-9.21,5.45-18.72,10.39-27.85,16-7.64,4.68-15.18,9.5-22.85,14.11l1.35,2.13C184.22,132.64,190,128.94,195.81,125.25Z" fill="#fff" opacity="0.51"></path><path d="M133,117.79c.19-.68,6.87-31.14,37.12-18.18,27.34,11.72,28.17,46.57,26.32,55.1-1.51,6.94-8.59,16.39-22.29,19.81" fill="#8c0000"></path><ellipse cx="161.62" cy="137.49" rx="27.91" ry="39.23" transform="translate(-41.34 75.57) rotate(-23.42)" fill="#ce4242"></ellipse><path d="M191,139.25,161.36,147l-6.49-13.77,26.82-16.7S189.37,128.28,191,139.25Z" fill="#fff"></path><ellipse cx="158.53" cy="139.93" rx="6.14" ry="7.64" transform="translate(-46.19 87.01) rotate(-26.94)" fill="#f7d600"></ellipse><path d="M120,70.11Q96,82.22,73,95.94a.5.5,0,0,0,.5.86Q96.54,83.09,120.51,71C121.09,70.68,120.58,69.82,120,70.11Z" fill="#f7931e"></path><path d="M66.13,93.66l54-31a2.27,2.27,0,0,1,3.4,2v20a5.45,5.45,0,0,1-2.79,4.76L68.37,118.7a2.27,2.27,0,0,1-3.38-2V95.63A2.27,2.27,0,0,1,66.13,93.66Z" fill="#05c69f"></path><polyline points="69.98 114.45 69.98 126.14 79.74 111.59" fill="#05c69f"></polyline><path d="M115,74.87l-28.66,16c-1.69.94-.18,3.53,1.51,2.59l28.66-16c1.69-.94.18-3.53-1.51-2.59Z" fill="#f2f2f2"></path><path d="M116.24,82.86,72.93,107c-1.69.94-.18,3.53,1.51,2.59l43.32-24.16c1.69-.94.18-3.53-1.51-2.59Z" fill="#f2f2f2"></path></g></g></svg>