<svg xmlns="http://www.w3.org/2000/svg" xmlns:xlink="http://www.w3.org/1999/xlink" viewBox="0 0 400 300" width="406" height="306" class="illustration styles_illustrationTablet__1DWOa"><defs><linearGradient id="linear-gradient" x1="138.79" y1="167.5" x2="94.93" y2="192.33" gradientUnits="userSpaceOnUse"><stop offset="0" stop-color="#d46a00"></stop><stop offset="1" stop-color="#fff"></stop></linearGradient><linearGradient id="linear-gradient-2" x1="367.29" y1="178.29" x2="350.01" y2="198" xlink:href="#linear-gradient"></linearGradient><linearGradient id="linear-gradient-3" x1="-299.47" y1="237.92" x2="-357.06" y2="268.95" gradientTransform="translate(543.22)" gradientUnits="userSpaceOnUse"><stop offset="0" stop-color="#8c6239"></stop><stop offset="1" stop-color="#fff"></stop></linearGradient></defs><title>PP</title><g style="isolation: isolate;"><g id="Layer_2" data-name="Layer 2"><path d="M194.28,287.7,14.56,181.48C8.84,178.27,3.93,173,9.51,169.53l180.37-104c2.71-1.68,6.82-2.78,9.57-1.18L388.11,173.89c5.72,3.32,6.75,12.6,1,15.93L218,287.53A23.9,23.9,0,0,1,194.28,287.7Z" fill="#e25327"></path><path d="M131.54,156.29,63.23,191.91l29.19,20.2,63.88-42C150.59,166.38,137.31,159.9,131.54,156.29Z" fill="url(#linear-gradient)" style="mix-blend-mode: multiply;"></path><path d="M120.07,127.94s-5.16,43.15-3.8,44.51,20.36,10.31,21.17,10,23.24-14.38,23.24-14.38-17.49-8.14-18.6-10.31-1.33-30.94-1.33-30.94" fill="#204a51"></path><path d="M168.26,16.72c5.17-2.77,9.52.59,9.71,7.52l2.63,94.37c.12,4.24-2.35,9.05-5.51,10.75l-94.45,50.7c-5.17,2.77-9.52-.59-9.71-7.52L68.28,77.59c-.11-3.92,2.17-8.37,5.1-9.94Z" fill="#68e1fd"></path><path d="M324.53,171.4l-36.39-20a4.45,4.45,0,0,1-2.31-3.9V80.82A4.45,4.45,0,0,1,292.51,77L328.9,98a4.45,4.45,0,0,1,2.23,3.86V167.5A4.45,4.45,0,0,1,324.53,171.4Z" fill="#68e1fd"></path><path d="M322.33,124.94v16c0,4.64-7.21,4.65-7.21,0v-16C315.12,120.3,322.33,120.29,322.33,124.94Z" fill="#56403d"></path><path d="M312.53,108.55v25.77c0,4.64-7.21,4.65-7.21,0V108.55C305.32,103.92,312.53,103.91,312.53,108.55Z" fill="#ffa197"></path><path d="M300.92,89.88v39.56c0,4.64-7.21,4.65-7.21,0V89.88C293.71,85.25,300.92,85.24,300.92,89.88Z" fill="#f2f2f2"></path><path d="M309.88,145.38l8.91,4.68c1.26.66.14,2.58-1.12,1.92l-8.91-4.68C307.5,146.63,308.62,144.72,309.88,145.38Z" fill="#f2f2f2"></path><path d="M294.26,144.21q12.43,6.67,25.12,12.84c1.28.62.16,2.54-1.12,1.92q-12.69-6.17-25.12-12.84C291.88,145.45,293,143.54,294.26,144.21Z" fill="#f2f2f2"></path><path d="M271.12,111.3,234.49,91.19a4.48,4.48,0,0,1-2.33-3.93V20.13a4.48,4.48,0,0,1,6.72-3.88l36.63,21.15a4.48,4.48,0,0,1,2.24,3.88v66.1A4.48,4.48,0,0,1,271.12,111.3Z" fill="#68e1fd"></path><path d="M257.51,46.9c-2.18-2.23-4.52-3.41-6.72-3.41a5.94,5.94,0,0,0-1.23.13,7.1,7.1,0,0,0-4.16,2.87,41,41,0,0,0-3.14-3.86,11.55,11.55,0,0,1,6.29-3.78c4.23-.89,8.65.76,12.45,4.65a24.44,24.44,0,0,1,3,3.81c-1.39.84-2.74,1.74-4.1,2.64A19.63,19.63,0,0,0,257.51,46.9Z" fill="#56403d"></path><path d="M257.49,81.27c2.33-.7,4.26-2.84,5.47-6.1a24.91,24.91,0,0,0,.62-13.59,27.82,27.82,0,0,0-3.11-8.24c1.36-.9,2.71-1.79,4.1-2.64a32.66,32.66,0,0,1,3.78,9.86,29.82,29.82,0,0,1-.82,16.3c-1.74,4.67-4.71,7.83-8.45,9C258.59,84.32,258.08,82.77,257.49,81.27Z" fill="#ffa197"></path><path d="M239,50.64a18.13,18.13,0,0,1,2.54-4.7,40.89,40.89,0,0,1,3.19,4,14.41,14.41,0,0,0-1.15,2.42A24.91,24.91,0,0,0,243,65.93a24.91,24.91,0,0,0,6.07,12.17c2.4,2.46,5,3.64,7.38,3.37.61,1.53,1.13,3.1,1.62,4.67h0a11,11,0,0,1-2.27.24c-3.51,0-7.06-1.69-10.18-4.89a29.82,29.82,0,0,1-7.35-14.57A29.82,29.82,0,0,1,239,50.64Z" fill="#f2f2f2"></path><ellipse cx="251.47" cy="62.87" rx="3.04" ry="5.52" transform="translate(-5.41 28.22) rotate(-6.35)" fill="#f2f2f2"></ellipse><path d="M238.77,87.35,261.58,98.8a.77.77,0,0,1-.69,1.38L238.08,88.72A.77.77,0,0,1,238.77,87.35Z" fill="#f2f2f2"></path><path d="M238.77,83.81l22.81,11.46a.77.77,0,0,1-.69,1.38L238.08,85.19A.77.77,0,0,1,238.77,83.81Z" fill="#f2f2f2"></path><path d="M362.44,175l-27.29,16.63s-1.68,4.32,17.21,12.26l28.44-17.7" fill="url(#linear-gradient-2)" style="mix-blend-mode: multiply;"></path><ellipse cx="370.71" cy="175.94" rx="14.95" ry="13.89" fill="#68e1fd"></ellipse><ellipse cx="370.7" cy="167.74" rx="11.19" ry="6.05" fill="#1d3f75"></ellipse><path d="M370.13,118.94v47.48a1,1,0,0,0,1.91,0V118.94A1,1,0,0,0,370.13,118.94Z" fill="#1c7377"></path><path d="M374.62,117.17a4.59,4.59,0,0,0,.29-3.63c-.44-1.31-1.07-2.57-1.59-3.85s-1-2.41-1.53-3.58h0c-.56.28-4.57,6.32-4.74,8.85s3.17,4.66,3.17,4.66l1,.64c.18.12,1.92-1.32,2.12-1.49A5.39,5.39,0,0,0,374.62,117.17Z" fill="#1c7377"></path><path d="M371.64,131v0c4.23-.41,7.16-4,9.15-7.67C376.3,123.56,372.17,126.39,371.64,131Z" fill="#1c7377"></path><path d="M371.31,130.84h0c-1.28-4.05-5.38-6.17-9.41-7.35C363.06,127.83,366.69,131.28,371.31,130.84Z" fill="#1c7377"></path><path d="M371.08,142.66v0c5.39-.52,9.11-5.06,11.65-9.76C377,133.19,371.75,136.79,371.08,142.66Z" fill="#1c7377"></path><path d="M370.66,142.45h0c-1.63-5.16-6.85-7.85-12-9.36C360.16,138.62,364.78,143,370.66,142.45Z" fill="#1c7377"></path><path d="M371.49,156.33v0c6.14-.6,10.38-5.77,13.27-11.13C378.25,145.54,372.26,149.64,371.49,156.33Z" fill="#1c7377"></path><path d="M371,156.1h0c-1.86-5.88-7.8-9-13.65-10.66C359,151.74,364.31,156.74,371,156.1Z" fill="#1c7377"></path><ellipse cx="123" cy="50.45" rx="5.02" ry="2.87" transform="translate(55.21 164.82) rotate(-81.64)" fill="#124577"></ellipse><path d="M120.92,106.84c2-1.07,3.68.23,3.76,2.91l1,36.52a4.9,4.9,0,0,1-2.13,4.16L87,170c-2,1.07-3.68-.23-3.76-2.91l-1-36.75a4.53,4.53,0,0,1,2-3.85Z" fill="#fff"></path><path d="M170.05,80.79c2-1.07,3.68.23,3.76,2.91l1,36.52a4.9,4.9,0,0,1-2.13,4.16L136.14,144c-2,1.07-3.68-.23-3.76-2.91l-1-36.75a4.53,4.53,0,0,1,2-3.85Z" fill="#fff"></path><path d="M119.82,59.09c2-1.07,3.68.23,3.76,2.91l1,36.52a4.9,4.9,0,0,1-2.13,4.16L85.9,122.31c-2,1.07-3.68-.23-3.76-2.91l-1-36.75a4.53,4.53,0,0,1,2-3.85Z" fill="#fff"></path><path d="M168,34c2-1.07,3.68.23,3.76,2.91l1,36.52a4.9,4.9,0,0,1-2.13,4.16L134.13,97.21c-2,1.07-3.68-.23-3.76-2.91l-1-36.75a4.53,4.53,0,0,1,2-3.85Z" fill="#fff" stroke="#ff9b48" stroke-miterlimit="10"></path><path d="M138.37,94.49c5.83-2.59,11.64-5.25,17.24-8.32L139.85,88.8C140.18,89.83,138.8,91.82,138.37,94.49Z" fill="#204a51"></path><path d="M169.82,57.13s1.26-3.89,1.16-5.57-1-4.13,0-4.64,2.31,3,2.31,3,3.16-6.6,4.1-6.18a2.07,2.07,0,0,1,1,1.71s1-1.66,1.4-1a3.53,3.53,0,0,1,0,2.06s.94.17,1,.77-1.32,3.1-1.32,3.1a1,1,0,0,1,.83.87c.06.77-5.94,6.75-5.94,6.75" fill="#fbc76f"></path><path d="M154,56.12s5.27,4.36,7.31,7.7S170.08,55,170.08,55s4.64,1.53,6.12,2.15-7.51,21.2-13.71,20.5-6-1.92-6-1.92" fill="#0096df"></path><path d="M139.85,88.8a24.9,24.9,0,0,0,12.45-.87q2-1,4-2.13c.76-8.71,1.33-17.43.39-26.18a.86.86,0,0,1,0-.21,8,8,0,0,0-2.62-3.3c-2.88-1.95-7.59-1-10.38.48a10.32,10.32,0,0,0-1.87,1.3C138.71,68,140,78.43,139.85,88.8Z" fill="#0096df"></path><path d="M150.8,52l-5.12-1.07-.43,5.65s3.86,3.95,7.67,3.4l-1.08-4.71A15.15,15.15,0,0,1,150.8,52Z" fill="#fcbb5b"></path><path d="M150.91,52.5a22.36,22.36,0,0,0-5.23-1.6L145.55,54s3.83,2.81,6.1.81A15.06,15.06,0,0,1,150.91,52.5Z" fill="#db9231"></path><path d="M154.49,45.83s3.41-2.07,2.73-4-3.33-2.41-3.33-2.41-.42-2.42-2.39-2.7-5.36,1.32-5.36,1.32-2.95-.27-4,1.38-.66,4.61-.66,4.61,2.46,7.45,3.55,7.64,3.81-2.55,3.81-2.55" fill="#204a51"></path><path d="M154.53,43.48s.8,9.87-3.39,10.52-6-5.08-6-5.08-2.55-2.37-.95-2.9,1.83.36,1.83.36-1.56-3.56.08-3.56S152.47,45.51,154.53,43.48Z" fill="#fbc76f"></path><path d="M145.25,55s2,1.88,3.32,2l2,1.11,1.68,1.75V57.4s-.5-2.19-.42-2.17S153.69,58,153.69,58l1.68,2.8-2.44-.24-1.06,1.79s-6.07-2.7-8.2-5.79Z" fill="#fff"></path><path d="M178.1,45.1q-1.64,2.78-3.13,5.65c-.13.25.24.46.37.22q1.48-2.87,3.13-5.65A.22.22,0,0,0,178.1,45.1Z" fill="#204a51"></path><path d="M179.48,46.4l-2.85,5.22c-.13.24.24.46.37.22l2.85-5.22C180,46.37,179.62,46.15,179.48,46.4Z" fill="#204a51"></path><path d="M179.28,50.37a13.08,13.08,0,0,0-1.49,2.12.22.22,0,0,0,.37.22,12.52,12.52,0,0,1,1.42-2C179.76,50.46,179.46,50.16,179.28,50.37Z" fill="#204a51"></path><path d="M173.71,50.58c-.24-.13-.46.24-.22.37a4.26,4.26,0,0,1,2,4,.21.21,0,0,0,.43,0A4.67,4.67,0,0,0,173.71,50.58Z" fill="#204a51"></path><path d="M141.79,57.9a14.21,14.21,0,0,0-5,5.52c-1.75,3.61-6.63,20-.9,22.3s15.68-3,15.68-3L151,74l-8.59,1.23" fill="#0096df"></path><path d="M152.86,67.16c-.07.28-2.63,16.24-2.63,16.24l10.11-2.71,2.15-16.32Z" fill="#ff7f5c"></path><path d="M148.87,75s1.78-4.57,2.71-4.29.64,2.61.64,2.61,4.58-2.24,5.79-1.21-1.83,3.65-2.65,4.2-6.1,2.52-6.1,2.52Z" fill="#fbc76f"></path><path d="M139.85,86.32a87.13,87.13,0,0,0,8.8-2.48s.79-4.58.83-4.43-.11,5.88-.47,6.27-9.17,3.12-9.17,3.12Z" fill="#363942"></path><path d="M101,163.45c5-2.45,10-5.1,14.73-8,.59-8.47.12-14.24-.81-15.81-1.21-2.05-8.59-3.68-11.95-2.75s-8.39,4.83-8.39,4.83,1.22,11.75,4.6,18.74A20.82,20.82,0,0,0,101,163.45Z" fill="#a5dd73"></path><path d="M108.32,138.08c1.18.25,1.4-3,.9-3.33a23.42,23.42,0,0,0-6.89,0c-1.87.83,0,3.6,0,3.6" fill="#a5dd73"></path><path d="M100.6,125.18c1-.35.73-2.1,2.56-3.2s4.32-.3,5.28.19,1.39-.87,2.47,0,.72,2.4,1.34,2.85l.09,0a2.76,2.76,0,0,1,.48,2.64,8.1,8.1,0,0,1-1.27,1.76l-8.09,5.92c-1.17-.59-4.29-7.33-4.3-8.23A1.88,1.88,0,0,1,100.6,125.18Z" fill="#200904"></path><path d="M110.65,126.39c.46.37.44,9-2.09,9.74s-6.09-2.25-6.52-3.22-1.09-6.43-.13-7.1S107.84,124.16,110.65,126.39Z" fill="#f67770"></path><path d="M109.08,124.13s.81,1.89-2.22,2.73-3.13,1.56-3.33,2.7c-.38,2.13-2.18,4.83-3.85-1.16-.08-.29,1.5-4.8,3.84-5.49S109.08,124.13,109.08,124.13Z" fill="#200904"></path><path d="M103.42,130.69s-1.22-1.52-1.85-.61.2,2.68,1.3,3.11" fill="#f67770"></path><path d="M118.51,153.65a35.91,35.91,0,0,1-1.58-6.92c-.64-5.17-2-7.13-2-7.13l-2.62,8.85a29.85,29.85,0,0,0,1.26,8.27Q116.06,155.24,118.51,153.65Z" fill="#a5dd73"></path><path d="M102.79,162.58l-1-1s-1.75-23.2-7.19-19.88c0,0-1.46.31-1.26,5.55s1.46,15.4,3.79,18.06Q100,164,102.79,162.58Z" fill="#a5dd73"></path><path d="M114.66,156l-.48-12.41c0-.46-.74-.46-.72,0l.49,12.74Z" fill="#75a542"></path><path d="M103.4,162.27l.64-.32a30.13,30.13,0,0,1-1.2-6.22l-1.11-6.81c-.07-.46-.77-.26-.7.19l1.22,7.49A27.41,27.41,0,0,0,103.4,162.27Z" fill="#75a542"></path><polygon points="193.89 145.45 178.67 136.52 202.16 122.63 216.99 131.87 193.89 145.45" fill="#5b434d"></polygon><polygon points="179.06 136.22 175.87 118.94 198.92 105.99 202.16 122.63 179.06 136.22" fill="#172d51"></polygon><path d="M178.71,284l51.69-31.7L215.76,242l-53.06,35.7C167.87,280.2,173.42,281.8,178.71,284Z" fill="url(#linear-gradient-3)" style="mix-blend-mode: multiply;"></path><path d="M206.46,245.68c0,.2-4,9.41-5,10s-3.71-1.23-4.66-.21-2.19,3.18-.07,4.09,8.42,1.76,9.56,1.26a19.46,19.46,0,0,0,3.11-2.11s.59-4.94,1.25-4.26.42,6,.89,6.16a5.17,5.17,0,0,0,1.84-.27l-.6-15.58" fill="#ff6161"></path><path d="M223.95,237.4c0,.19-4.37,9.26-5.3,9.8s-3.66-1.36-4.65-.37-2.3,3.1-.21,4.09,8.35,2.06,9.51,1.6a19.46,19.46,0,0,0,3.19-2s.77-4.92,1.4-4.22.21,6,.67,6.19a5.17,5.17,0,0,0,1.85-.2l0-15.59" fill="#ff6161"></path><path d="M208.56,161s-12.88,66-11.81,81.28c0,0,2.55,10.21,24.68,6.81,0,0,1.91-7.66,1.06-20.64S219.3,161,219.3,161Z" fill="#42210b"></path><path d="M210.89,239l3.34-78.7L227.54,159s5.8,20.28,4.52,30.07,1.49,22.77,2.13,29.58c.57,6.11.8,16.67-1.31,21.39C225.74,242.11,218,241.42,210.89,239Z" fill="#42210b"></path><path d="M222.36,245.37a131.61,131.61,0,0,0,2.23-14.94,53.19,53.19,0,0,0,.05-7.37,71.8,71.8,0,0,0-1.08-7.54A54.69,54.69,0,0,1,223,202c.34-4.64,1.05-9.24,1.5-13.87a50,50,0,0,0-.51-15.65c-.15-.67.88-1,1-.28,2.06,9.25.08,18.62-.79,27.88a55.61,55.61,0,0,0,.27,14.38c.39,2.33.86,4.64,1.11,7a49,49,0,0,1,.18,7.57,122.46,122.46,0,0,1-2.36,16.66C223.26,246.32,222.24,246,222.36,245.37Z" fill="#fff"></path><path d="M217.28,125.72c-1.26.44-6.73.44-8.49,5.27a104.87,104.87,0,0,0-3.13,11l-13.09-7.06s-.78,11,.78,13.75,9.18,8.92,15.44,5.39c0,0-.59,4.27,0,5.57s15,2.88,18.3-1.21,1-23.5,1-23.5" fill="#ff6161"></path><path d="M192.79,140.38c.21-1.57.27-3.15.43-4.72a8.16,8.16,0,0,1-1.23-1.12c-.45-.46-.88-.93-1.3-1.41s-.55-1-.84-1.55l-.33-.64c-.41-.81-.78-2.09-1.76-2.46a1.28,1.28,0,0,0-1.75.94c-.16,1.42,2.36,4.43-.62,4.35a11.22,11.22,0,0,0-1.68,0c-1.14.14-2.19.68-1.77,1.92a1.88,1.88,0,0,0,.25.49,1.44,1.44,0,0,0-.92,1.94,1.66,1.66,0,0,0,1,.92,1,1,0,0,0,0,1.32,1.68,1.68,0,0,0,1,.62,1.25,1.25,0,0,0,.07.63c.38,1,1.71,1.31,2.65,1.46a32.69,32.69,0,0,0,6.37.16C192.49,142.31,192.66,141.35,192.79,140.38Z" fill="#f7931e"></path><path d="M209.66,110.34c-.82.49-.78,12.79,2.9,14.31,4.8,2,8.66-3.42,9.11-6.32S219.14,104.62,209.66,110.34Z" fill="#f7931e"></path><path d="M235,130.15a5.52,5.52,0,0,1-1.71-1.64A7,7,0,0,1,233,126c-.12-2.08-.69-4.28-2.71-5.42-1.29-.73-3.11-.09-4.18-1.21s-.82-3.13-1-4.67c-.87-8-13.31-9.5-17.32-2.95a4.58,4.58,0,0,0,1.47,6.33,5.05,5.05,0,0,0,2,.74c1,.16,2,.13,2.49,1.19.66,1.59-.56,3.23-1.16,4.64-.94,2.2-1.23,5.35,1,6.94a12,12,0,0,0,3.64,1.28,2.91,2.91,0,0,1,1.42.75c.61.72.22,1.71.09,2.52a3.77,3.77,0,0,0,0,1.3,2.65,2.65,0,0,0,.68,2.28c1.35,1.56,3.84,1.62,5.8,1.52a18.87,18.87,0,0,0,6.6-1.55c1.83-.79,4.1-2,5-3.78C238,133.78,236.74,131.56,235,130.15Z" fill="#fcee21"></path><path d="M213.8,141a25.07,25.07,0,0,1-1.21,7.39,8.93,8.93,0,0,1-4.19,5.26.36.36,0,0,0,.38.61,9.44,9.44,0,0,0,4.34-5.14,24.83,24.83,0,0,0,1.43-8.12C214.55,140.56,213.81,140.56,213.8,141Z" fill="#124577" opacity="0.7"></path><path d="M105.2,78.58l.12,4.28S101.66,84.5,99.81,84V77.05" fill="#e5b79e"></path><path d="M107.55,70.56s.12,6.92.51,8.21-3.75.66-3.9-1.29" fill="#f7931e"></path><path d="M107.37,71.85c.07.22,0,7.19-2.13,7.86-3.36,1.05-5.39-1.75-6.41-3.91s-.37-8.44,3.28-8.84S106.72,69.86,107.37,71.85Z" fill="#ffd9c0"></path><path d="M107.37,71.85a2.64,2.64,0,0,0,1.41-2.71,5.47,5.47,0,0,0-5.45-5c-3.51,0-9.13,2.25-7.52,7.81,1.71,5.94,4.44,6.16,4.44,6.16s-1.31-3.2-1-4.77.73-3.13.73-3-.1,2.11-.1,2.11a15.79,15.79,0,0,0,2.64,0c.11-.15.78-2.35.78-2.35v2.35Z" fill="#f7931e"></path><path d="M99.56,74.06s-.52-3-1.48-2.34-.73,3,1.18,3.65" fill="#ffd9c0"></path><path d="M95.57,69.3s-.72,9,.26,10.59,4.1,2.27,6,1.8-2.33-5.6-1.93-7.89.91-4.5.91-4.5" fill="#f7931e"></path><path d="M115.44,106.4c-.26-1-.48-1.83-.59-2.48a105.48,105.48,0,0,1-.58-11c-.08-2.44-.33-11.65-2.47-12.72a3.76,3.76,0,0,0-3.71,0v6.54s1.95,13.15,3.49,22C112.89,108,114.18,107.22,115.44,106.4Z" fill="#ffe8d9"></path><path d="M98.92,83.21l2.57-.65a.64.64,0,0,0,.45.52,2.92,2.92,0,0,0,3.38-1.29.71.71,0,0,0,0-.22l1.93-.49c-.11.28,3.16,1.1,3,4.08s0,6.15-2.17,6.58a22.56,22.56,0,0,1-4.34.37l-3.9-2.86-1.48-3.71Z" fill="#ffe8d9"></path><path d="M94.79,116.47c-.05.24-.1.54-.15.88,6.05-2.9,12.17-5.74,17.93-9.18-.7-3.27-1.19-6.93,0-9.85,2.77-7.06,1.42-6.64,0-11.2-.57-1.79-1.72-6.84-2.13-7.43s-5.15,0-5.15,0h0a4.42,4.42,0,0,1,1.06,1.57.54.54,0,0,1,0,.24l.06,0a.69.69,0,0,1,.17.14h0l.06.06.13.2.2.28a.64.64,0,0,1,1,.13c1.27,2.31,1.75,7-1.2,8.31a4.47,4.47,0,0,1-5-1.44,17.89,17.89,0,0,1-1.88-2.93,5.52,5.52,0,0,1-1-3.12.66.66,0,0,1,.41-.58c-.08-.17-.17-.32-.25-.49a.67.67,0,0,1,0-.07c-2.18,1.05-4.69,2.46-5.69,4.38-1.6,3.08,3.43,9.89,4.2,14.92S95.5,113.27,94.79,116.47Z" fill="#603813"></path><path d="M105.21,79.7S108.48,82,108.06,83s-1.41,2.84-1.41,2.84l-2.51-2.37S103.56,87,103,87c-2.32,0-4.25-4.09-4.37-4.44s1.64-1.91,1.64-1.91S102,83,103.79,82.6,105.21,79.7,105.21,79.7Z" fill="#f78b72"></path><path d="M104.92,85.77a.68.68,0,0,1,0,1.36A.68.68,0,0,1,104.92,85.77Z" fill="#7896b5"></path><path d="M105.57,88.2a.68.68,0,0,1,0,1.36A.68.68,0,0,1,105.57,88.2Z" fill="#7896b5"></path><path d="M104.27,112.1c.07.15.16.31.24.46,1.67-.84,3.33-1.71,5-2.61-1.44-2-3-4-3.81-5.27-1.73-2.72-8-19.62-11.7-19.95a4.45,4.45,0,0,0-2.56,3.91c-.16,2.68,2.31,7.55,4.62,10.93S103,109.54,104.27,112.1Z" fill="#ffe8d9"></path><path d="M143.73,140.68s-1.08-18.73,2.68-22.15,14.35-8.73,16.4-6.16,1.68,16.91,1.68,16.91" fill="#ff6161"></path><path d="M151.3,110.39l.4,5.21A4.64,4.64,0,0,0,156,114" fill="#edaf00"></path><path d="M159.11,102.68c.11.37,1.22,10.88-3.13,11.35s-4.27-7.08-4.29-9.38S157.94,98.72,159.11,102.68Z" fill="#ffc40c"></path><path d="M158.09,103.41s2.64-.92,2.55-2.88-.91-4-3.14-3.14c0,0-3.46-1-5.57-.09s-1.56,3.4-1.56,3.4a3.64,3.64,0,0,0-2.77,1.74c-.69,1.54,1.17,3.45,1.17,3.45a2.52,2.52,0,0,0-.33,3.07c1,1.79,4,2.23,4,2.23s-.65-6.86,1.61-6.66A6.39,6.39,0,0,0,158.09,103.41Z" fill="#545454"></path><path d="M153.07,108.3s-.82-2-2.11-1.36,0,2,1.41,2.79" fill="#ffc40c"></path><path d="M149.66,126.55a.48.48,0,0,0-.43.47l-.38,10.34a.47.47,0,0,0,.66.45C149.55,134.05,149.66,130.3,149.66,126.55Z" fill="#545454"></path><path d="M161.5,127.28c-.06-1.88-.26-3.76-.42-5.64-.31-.19-.79-.06-.74.39q.47,4.34.62,8.71a.5.5,0,0,0,.62.47C161.5,129.91,161.55,128.61,161.5,127.28Z" fill="#545454"></path></g></g></svg>